<?xml version="1.0" encoding="iso-8859-1"?>
<!-- Generator: Adobe Illustrator 19.0.0, SVG Export Plug-In . SVG Version: 6.00 Build 0)  -->
<svg version="1.1" id="Layer_1" xmlns="http://www.w3.org/2000/svg" xmlns:xlink="http://www.w3.org/1999/xlink" x="0px" y="0px"
	 viewBox="0 0 495 495" style="enable-background:new 0 0 495 495;" xml:space="preserve">
<g>
	<path d="M281.821,242.611l-19.321-6.103V61.371c39.087,7.094,68.829,41.357,68.829,82.459h30
		c0-57.681-43.127-105.474-98.829-112.84V0h-30v30.99c-55.702,7.365-98.829,55.158-98.829,112.84
		c0,54.589,27.494,92.129,79.508,108.56l19.321,6.103v175.137c-39.087-7.094-68.829-41.357-68.829-82.459h-30
		c0,57.681,43.127,105.474,98.829,112.84V495h30v-30.99c55.702-7.365,98.829-55.158,98.829-112.84
		C361.329,296.581,333.835,259.042,281.821,242.611z M222.215,223.782c-39.941-12.617-58.544-38.023-58.544-79.953
		c0-41.102,29.742-75.365,68.829-82.459v165.661L222.215,223.782z M262.5,433.629V267.969l10.285,3.249
		c39.941,12.617,58.544,38.023,58.544,79.953C331.329,392.272,301.587,426.535,262.5,433.629z"/>
</g>
<g>
</g>
<g>
</g>
<g>
</g>
<g>
</g>
<g>
</g>
<g>
</g>
<g>
</g>
<g>
</g>
<g>
</g>
<g>
</g>
<g>
</g>
<g>
</g>
<g>
</g>
<g>
</g>
<g>
</g>
</svg>
