<svg width="16" height="23" viewBox="0 0 16 23" fill="none" xmlns="http://www.w3.org/2000/svg">
<path d="M8 1.91667C11.196 1.91667 14 4.42558 14 7.28525C14 10.2494 11.507 14.1201 8 19.4187C4.493 14.1201 2 10.2494 2 7.28525C2 4.42558 4.804 1.91667 8 1.91667ZM8 0C3.802 0 0 3.26121 0 7.28525C0 11.3083 3.469 16.1115 8 23C12.531 16.1115 16 11.3083 16 7.28525C16 3.26121 12.199 0 8 0ZM8 11.5C6.343 11.5 5 10.213 5 8.625C5 7.03704 6.343 5.75 8 5.75C9.657 5.75 11 7.03704 11 8.625C11 10.213 9.657 11.5 8 11.5Z" fill="white"/>
</svg>
