<svg width="30" height="31" viewBox="0 0 30 31" fill="none" xmlns="http://www.w3.org/2000/svg">
<g clip-path="url(#clip0_112_48)">
<rect width="30" height="30.3123" fill="white"/>
<path d="M1.96955 11.106C2.12724 11.6523 2.34608 12.1791 2.62285 12.6734L1.83438 13.6782C1.57692 14.0066 1.60588 14.4749 1.89553 14.7708L3.25364 16.143C3.5465 16.4389 4.00993 16.4649 4.33497 16.2048L5.32298 15.4146C5.83147 15.7105 6.37213 15.9414 6.93533 16.104L7.08337 17.3884C7.13165 17.8046 7.47922 18.1168 7.89116 18.1168H9.81246C10.2244 18.1168 10.572 17.8046 10.6202 17.3884L10.7619 16.1495C11.3669 15.9902 11.9462 15.7528 12.4901 15.4439L13.4459 16.208C13.7709 16.4682 14.2344 16.4389 14.5272 16.1462L15.8853 14.774C16.1782 14.4781 16.2039 14.0098 15.9465 13.6814L15.2031 12.7286C15.512 12.1888 15.7534 11.6133 15.9143 11.0117L17.06 10.8784C17.472 10.8296 17.7809 10.4784 17.7809 10.0622V8.12088C17.7809 7.70466 17.4719 7.35346 17.06 7.30469L15.9304 7.17137C15.7759 6.57629 15.5442 6.00723 15.2481 5.47394L15.9433 4.58621C16.2008 4.25778 16.1718 3.78953 15.8821 3.49362L14.5273 2.12462C14.2344 1.82871 13.771 1.8027 13.4459 2.06284L12.5931 2.74571C12.0395 2.41728 11.4473 2.1669 10.8262 1.9978L10.6975 0.882448C10.6492 0.466222 10.3017 0.154053 9.88973 0.154053H7.96843C7.55649 0.154053 7.20892 0.466222 7.16064 0.882448L7.03191 1.9978C6.3947 2.17015 5.78644 2.43029 5.22003 2.77172L4.335 2.06284C4.00996 1.8027 3.54653 1.83196 3.25367 2.12462L1.89556 3.49687C1.6027 3.79278 1.57695 4.26103 1.83441 4.58946L2.57461 5.53573C2.27853 6.07552 2.05325 6.65108 1.90521 7.24941L0.720892 7.38598C0.308954 7.43476 0 7.78595 0 8.20218V10.1435C0 10.5597 0.308954 10.9109 0.720892 10.9597L1.96955 11.106ZM8.93066 5.85443C10.6814 5.85443 12.1071 7.29497 12.1071 9.06393C12.1071 10.8329 10.6814 12.2734 8.93066 12.2734C7.17995 12.2734 5.75423 10.8329 5.75423 9.06393C5.75423 7.29497 7.17992 5.85443 8.93066 5.85443Z" fill="#392727"/>
<path d="M27.9248 11.5841L26.9111 10.7191C26.5989 10.4525 26.1387 10.4655 25.8426 10.7484L25.2827 11.2784C24.8096 11.0475 24.3076 10.8849 23.7894 10.7906L23.6318 10.0102C23.5513 9.607 23.1812 9.32735 22.7756 9.35987L21.4529 9.47368C21.0474 9.50945 20.7288 9.84438 20.7159 10.2574L20.6902 11.0508C20.1817 11.2361 19.7022 11.4898 19.2645 11.8084L18.5951 11.3597C18.2539 11.1321 17.8002 11.1971 17.5363 11.5125L16.6803 12.5433C16.4163 12.8588 16.4292 13.3238 16.7092 13.6229L17.2949 14.2537C17.0921 14.7155 16.9473 15.2 16.8637 15.6975L16.0269 15.8699C15.6279 15.9512 15.3511 16.3251 15.3833 16.7349L15.4959 18.0714C15.5313 18.4811 15.8628 18.803 16.2715 18.816L17.1759 18.8452C17.34 19.281 17.5556 19.694 17.8163 20.0809L17.3111 20.8516C17.0858 21.1963 17.1501 21.6548 17.4623 21.9214L18.476 22.7864C18.7882 23.053 19.2484 23.04 19.5445 22.7571L20.2075 22.1295C20.642 22.3344 21.0989 22.4872 21.5688 22.5783L21.7523 23.4953C21.8327 23.8985 22.2028 24.1781 22.6083 24.1456L23.931 24.0318C24.3365 23.996 24.6551 23.6611 24.668 23.2481L24.697 22.3506C25.1797 22.1783 25.6367 21.9441 26.0583 21.6548L26.7888 22.1425C27.13 22.3702 27.5837 22.3051 27.8477 21.9897L28.7037 20.9654C28.9676 20.65 28.9547 20.185 28.6747 19.8858L28.0858 19.255C28.3014 18.7932 28.4592 18.3055 28.5492 17.8047L29.3538 17.6388C29.7528 17.5575 30.0296 17.1836 29.9974 16.7738L29.8848 15.4374C29.8494 15.0276 29.5179 14.7057 29.1092 14.6927L28.3014 14.6667C28.134 14.1919 27.9087 13.7432 27.6288 13.327L28.0697 12.6571C28.3014 12.3125 28.237 11.8507 27.9248 11.5841ZM22.9398 19.3102C21.5109 19.4338 20.2493 18.3575 20.1302 16.9137C20.0079 15.4699 21.0732 14.1952 22.502 14.0749C23.931 13.9513 25.1926 15.0277 25.3116 16.4714C25.434 17.9153 24.3686 19.19 22.9398 19.3102Z" fill="#392727"/>
<path d="M6.59747 22.9067C6.19197 22.9489 5.8798 23.2936 5.87658 23.7066L5.86692 24.5293C5.86049 24.9423 6.163 25.2935 6.5685 25.3455L7.1671 25.4235C7.26687 25.791 7.40847 26.1422 7.59191 26.4739L7.20572 26.9551C6.94826 27.277 6.96757 27.7388 7.25399 28.0347L7.82363 28.6233C8.11005 28.9192 8.56705 28.9517 8.89209 28.6981L9.37158 28.3241C9.7095 28.5257 10.0668 28.6851 10.44 28.7956L10.5044 29.42C10.5462 29.8297 10.8874 30.1451 11.2961 30.1484L12.1104 30.1581C12.519 30.1646 12.8667 29.859 12.9181 29.4492L12.9922 28.8574C13.3977 28.7566 13.7839 28.6038 14.1507 28.4022L14.6013 28.7696C14.9199 29.0298 15.3769 29.0103 15.6698 28.7209L16.2523 28.1453C16.5452 27.8559 16.5773 27.3941 16.3264 27.0657L15.9819 26.6137C16.1943 26.256 16.3585 25.8755 16.4711 25.4756L17.0054 25.4203C17.4109 25.378 17.723 25.0333 17.7263 24.6203L17.7359 23.7976C17.7424 23.3847 17.4398 23.0334 17.0343 22.9814L16.5129 22.9131C16.4132 22.5164 16.2652 22.1327 16.0721 21.775L16.3971 21.3718C16.6546 21.0499 16.6353 20.5881 16.3488 20.2922L15.7792 19.7036C15.4928 19.4077 15.0358 19.3752 14.7107 19.6288L14.3213 19.9313C13.9545 19.7069 13.5618 19.5345 13.1499 19.4175L13.0984 18.907C13.0565 18.4972 12.7154 18.1818 12.3067 18.1786L11.4925 18.1688C11.0837 18.1623 10.7362 18.468 10.6846 18.8777L10.6203 19.385C10.1955 19.4955 9.78677 19.6646 9.40701 19.8857L9.00473 19.5541C8.68612 19.2939 8.2291 19.3135 7.93623 19.6028L7.35051 20.1817C7.05765 20.4711 7.02547 20.9328 7.27649 21.2612L7.62084 21.71C7.42131 22.0677 7.26362 22.4481 7.16063 22.8481L6.59747 22.9067ZM11.8529 21.9766C13.0211 21.9896 13.9576 22.9619 13.9448 24.1423C13.9319 25.3227 12.9696 26.269 11.8014 26.256C10.6331 26.243 9.69666 25.2707 9.7095 24.0903C9.7224 22.9099 10.6847 21.9636 11.8529 21.9766Z" fill="#392727"/>
</g>
<defs>
<clipPath id="clip0_112_48">
<rect width="30" height="30.3123" fill="white"/>
</clipPath>
</defs>
</svg>
