<svg width="35" height="35" viewBox="0 0 35 35" fill="none" xmlns="http://www.w3.org/2000/svg">
<rect width="35" height="35" fill="white"/>
<path d="M2.2978 12.8235C2.48178 13.4543 2.7371 14.0626 3.06 14.6333L2.14011 15.7935C1.83974 16.1727 1.87353 16.7133 2.21145 17.055L3.79591 18.6395C4.13758 18.9811 4.67825 19.0112 5.05747 18.7108L6.21014 17.7984C6.80338 18.1401 7.43416 18.4067 8.09122 18.5944L8.26393 20.0775C8.32025 20.5581 8.72575 20.9185 9.20635 20.9185H11.4479C11.9285 20.9185 12.334 20.558 12.3903 20.0775L12.5555 18.6469C13.2614 18.463 13.9372 18.1889 14.5717 17.8322L15.6869 18.7145C16.0661 19.0149 16.6068 18.9811 16.9484 18.6432L18.5329 17.0587C18.8746 16.7171 18.9046 16.1764 18.6042 15.7972L17.7369 14.6971C18.0973 14.0738 18.3789 13.4092 18.5667 12.7146L19.9033 12.5607C20.384 12.5044 20.7444 12.0989 20.7444 11.6183V9.37673C20.7444 8.89614 20.3839 8.49064 19.9033 8.43432L18.5854 8.28038C18.4052 7.59328 18.1349 6.93622 17.7895 6.32045L18.6005 5.29544C18.9009 4.91622 18.8671 4.37555 18.5292 4.03388L16.9485 2.45317C16.6068 2.1115 16.0661 2.08146 15.6869 2.38183L14.6919 3.17031C14.0461 2.79109 13.3552 2.50198 12.6306 2.30674L12.4804 1.0189C12.4241 0.538302 12.0186 0.177856 11.538 0.177856H9.2965C8.8159 0.177856 8.4104 0.538302 8.35408 1.0189L8.2039 2.30674C7.46048 2.50574 6.75085 2.80611 6.09003 3.20034L5.05751 2.38183C4.67829 2.08146 4.13762 2.11525 3.79594 2.45317L2.21149 4.03763C1.86981 4.3793 1.83978 4.91997 2.14015 5.29919L3.00372 6.39179C2.65829 7.01506 2.39546 7.67963 2.22275 8.37049L0.84104 8.52818C0.360446 8.5845 0 8.99001 0 9.4706V11.7121C0 12.1927 0.360446 12.5982 0.84104 12.6545L2.2978 12.8235ZM10.4191 6.75978C12.4616 6.75978 14.1249 8.42309 14.1249 10.4656C14.1249 12.5081 12.4616 14.1715 10.4191 14.1715C8.37661 14.1715 6.71327 12.5081 6.71327 10.4656C6.71327 8.42309 8.37657 6.75978 10.4191 6.75978Z" fill="#FF6534"/>
<path d="M32.579 13.3755L31.3963 12.3767C31.0321 12.0688 30.4952 12.0839 30.1498 12.4105L29.4965 13.0225C28.9446 12.7559 28.3588 12.5682 27.7543 12.4593L27.5704 11.5582C27.4765 11.0926 27.0448 10.7697 26.5716 10.8073L25.0284 10.9387C24.5554 10.98 24.1836 11.3667 24.1686 11.8436L24.1386 12.7597C23.5454 12.9737 22.9859 13.2666 22.4753 13.6345L21.6944 13.1164C21.2963 12.8536 20.7669 12.9287 20.4591 13.2929L19.4603 14.4831C19.1524 14.8473 19.1674 15.3842 19.4941 15.7296L20.1774 16.458C19.9409 16.9911 19.7719 17.5506 19.6743 18.125L18.6981 18.324C18.2325 18.4179 17.9096 18.8497 17.9472 19.3228L18.0786 20.866C18.1199 21.3391 18.5066 21.7108 18.9835 21.7258L20.0385 21.7595C20.2301 22.2627 20.4816 22.7395 20.7857 23.1863L20.1962 24.0762C19.9334 24.4742 20.0085 25.0036 20.3727 25.3114L21.5554 26.3102C21.9196 26.6181 22.4565 26.603 22.802 26.2764L23.5754 25.5517C24.0823 25.7883 24.6154 25.9647 25.1636 26.0699L25.3777 27.1287C25.4715 27.5943 25.9033 27.9172 26.3764 27.8796L27.9196 27.7482C28.3926 27.7069 28.7643 27.3202 28.7794 26.8433L28.8132 25.807C29.3764 25.608 29.9095 25.3377 30.4013 25.0036L31.2537 25.5668C31.6517 25.8296 32.181 25.7545 32.489 25.3903L33.4877 24.2076C33.7955 23.8434 33.7805 23.3065 33.4539 22.961L32.7668 22.2327C33.0184 21.6995 33.2024 21.1363 33.3074 20.5581L34.2461 20.3666C34.7117 20.2727 35.0346 19.8409 34.997 19.3678L34.8656 17.8246C34.8243 17.3516 34.4376 16.9798 33.9607 16.9648L33.0183 16.9348C32.823 16.3866 32.5602 15.8685 32.2336 15.3879L32.7479 14.6144C33.0183 14.2165 32.9432 13.6833 32.579 13.3755ZM26.7631 22.2965C25.0961 22.4392 23.6242 21.1963 23.4853 19.5293C23.3426 17.8623 24.5854 16.3904 26.2524 16.2515C27.9195 16.1088 29.3914 17.3516 29.5303 19.0187C29.673 20.6858 28.4301 22.1576 26.7631 22.2965Z" fill="#FF6534"/>
<path d="M7.69703 26.4492C7.22394 26.498 6.85974 26.896 6.85599 27.3728L6.84472 28.3228C6.83721 28.7996 7.19015 29.2051 7.66323 29.2652L8.3616 29.3553C8.47799 29.7796 8.6432 30.1851 8.85721 30.5681L8.40665 31.1238C8.10628 31.4954 8.12881 32.0286 8.46297 32.3703L9.12755 33.0499C9.46171 33.3916 9.99487 33.4291 10.3741 33.1362L10.9335 32.7045C11.3277 32.9373 11.7445 33.1213 12.18 33.2489L12.2551 33.9698C12.3039 34.4429 12.7019 34.8071 13.1788 34.8108L14.1287 34.8221C14.6055 34.8296 15.0111 34.4767 15.0711 34.0036L15.1575 33.3202C15.6306 33.2038 16.0812 33.0274 16.5092 32.7946L17.0348 33.2188C17.4065 33.5192 17.9397 33.4967 18.2814 33.1625L18.961 32.498C19.3027 32.1638 19.3402 31.6306 19.0474 31.2514L18.6456 30.7295C18.8934 30.3165 19.0849 29.8772 19.2163 29.4154L19.8396 29.3515C20.3127 29.3027 20.6768 28.9047 20.6806 28.4279L20.6918 27.4779C20.6994 27.0011 20.3465 26.5956 19.8734 26.5355L19.2651 26.4567C19.1487 25.9986 18.976 25.5555 18.7507 25.1425L19.13 24.677C19.4303 24.3052 19.4078 23.7721 19.0736 23.4304L18.4091 22.7508C18.0749 22.4091 17.5417 22.3716 17.1625 22.6645L16.7082 23.0137C16.2802 22.7546 15.8221 22.5556 15.3415 22.4204L15.2814 21.8309C15.2326 21.3578 14.8346 20.9937 14.3578 20.9899L13.4078 20.9786C12.931 20.9711 12.5255 21.3241 12.4654 21.7971L12.3903 22.3829C11.8947 22.5105 11.4179 22.7058 10.9748 22.9611L10.5055 22.5781C10.1338 22.2777 9.60059 22.3003 9.25892 22.6344L8.57558 23.3028C8.2339 23.6369 8.19636 24.1701 8.48922 24.5493L8.89096 25.0675C8.65818 25.4805 8.4742 25.9197 8.35405 26.3816L7.69703 26.4492ZM13.8284 25.3753C15.1913 25.3903 16.2839 26.513 16.2689 27.876C16.2539 29.2389 15.1312 30.3315 13.7682 30.3165C12.4053 30.3015 11.3127 29.1788 11.3277 27.8158C11.3428 26.4529 12.4654 25.3603 13.8284 25.3753Z" fill="#FF6534"/>
</svg>
