<?xml version="1.0" encoding="iso-8859-1"?>
<!-- Generator: Adobe Illustrator 18.0.0, SVG Export Plug-In . SVG Version: 6.00 Build 0)  -->
<!DOCTYPE svg PUBLIC "-//W3C//DTD SVG 1.1//EN" "http://www.w3.org/Graphics/SVG/1.1/DTD/svg11.dtd">
<svg version="1.1" id="Capa_1" xmlns="http://www.w3.org/2000/svg" xmlns:xlink="http://www.w3.org/1999/xlink" x="0px" y="0px"
	 viewBox="0 0 57.917 57.917" style="enable-background:new 0 0 57.917 57.917;" xml:space="preserve">
<g>
	<path d="M20.674,49.982c1.746-1.918,2.82-4.458,2.82-7.25c0-5.953-4.843-10.796-10.796-10.796S1.903,36.778,1.903,42.731
		s4.843,10.796,10.796,10.796c2.441,0,4.688-0.824,6.499-2.196l6.001,6.277c0.196,0.205,0.459,0.309,0.723,0.309
		c0.249,0,0.497-0.092,0.691-0.277c0.398-0.382,0.413-1.015,0.031-1.414L20.674,49.982z M3.903,42.731
		c0-4.85,3.946-8.796,8.796-8.796s8.796,3.946,8.796,8.796s-3.946,8.796-8.796,8.796S3.903,47.581,3.903,42.731z"/>
	<path d="M55.436,40.904c-2.008-3.796-8.981-7.912-9.287-8.092c-0.896-0.51-1.831-0.78-2.706-0.78c-1.301,0-2.366,0.596-3.011,1.68
		c-1.02,1.22-2.285,2.646-2.592,2.867c-2.376,1.612-4.237,1.429-6.294-0.629L20.059,24.464c-2.045-2.045-2.233-3.928-0.631-6.291
		c0.224-0.31,1.649-1.575,2.87-2.596c0.778-0.463,1.312-1.15,1.545-1.995c0.307-1.106,0.071-2.463-0.652-3.732
		c-0.173-0.296-4.29-7.269-8.085-9.276C14.397,0.198,13.599,0,12.799,0c-1.319,0-2.558,0.514-3.49,1.445L6.772,3.982
		c-4.014,4.013-5.467,8.562-4.321,13.52c0.867,3.75,3.259,7.72,7.083,11.814c1.018-0.24,2.074-0.38,3.164-0.38
		c7.607,0,13.796,6.188,13.796,13.796c0,1.101-0.143,2.167-0.388,3.193c5.502,5.311,10.752,8.011,15.614,8.011
		c3.721,0,7.189-1.581,10.307-4.699l2.537-2.537C56.105,45.159,56.455,42.83,55.436,40.904z"/>
</g>
<g>
</g>
<g>
</g>
<g>
</g>
<g>
</g>
<g>
</g>
<g>
</g>
<g>
</g>
<g>
</g>
<g>
</g>
<g>
</g>
<g>
</g>
<g>
</g>
<g>
</g>
<g>
</g>
<g>
</g>
</svg>
