<svg width="25" height="26" viewBox="0 0 25 26" fill="none" xmlns="http://www.w3.org/2000/svg">
<g clip-path="url(#clip0_112_57)">
<path d="M0.0786813 5.27783C1.38617 9.18794 4.13862 13.6291 8.01618 17.6618C11.8937 21.6944 16.1641 24.557 19.9238 25.9168C20.4345 26.1006 20.9984 25.9693 21.3828 25.5724L23.9838 22.8675L24.5898 22.2372C25.1369 21.6682 25.1369 20.7432 24.5898 20.1741L20.5635 15.9897C20.0164 15.4207 19.127 15.4207 18.5799 15.9897L17.4885 17.1248C16.9217 17.7143 16.0182 17.7726 15.3841 17.2591C14.13 16.2436 12.887 15.1027 11.6833 13.8509C10.4797 12.599 9.38261 11.3064 8.40621 10.002C7.91237 9.34256 7.96848 8.40589 8.53527 7.81353L9.62671 6.67844C10.1738 6.10943 10.1738 5.18442 9.62671 4.61542L5.60045 0.428099C5.05332 -0.140909 4.1639 -0.140909 3.61677 0.428099L3.01073 1.05839L0.409789 3.76336C0.0281776 4.16024 -0.0980816 4.74676 0.0786813 5.27783Z" fill="white"/>
</g>
<defs>
<clipPath id="clip0_112_57">
<rect width="25" height="26" fill="white"/>
</clipPath>
</defs>
</svg>
