<svg width="20" height="20" viewBox="0 0 20 20" fill="none" xmlns="http://www.w3.org/2000/svg">
<g clip-path="url(#clip0_98_53)">
<path d="M0.0628474 4.05993C1.10883 7.06771 3.3108 10.484 6.41284 13.586C9.51489 16.6881 12.9312 18.8901 15.939 19.936C16.3475 20.0774 16.7986 19.9764 17.1062 19.6712L19.1869 17.5904L19.6717 17.1056C20.1094 16.6679 20.1094 15.9563 19.6717 15.5186L16.4507 12.2999C16.013 11.8622 15.3015 11.8622 14.8638 12.2999L13.9907 13.173C13.5373 13.6264 12.8145 13.6713 12.3072 13.2763C11.3039 12.4952 10.3095 11.6175 9.34657 10.6546C8.38363 9.69163 7.50599 8.69727 6.72487 7.69393C6.32979 7.18665 6.37469 6.46613 6.82812 6.01048L7.70127 5.13732C8.13897 4.69963 8.13897 3.98808 7.70127 3.55039L4.48026 0.329373C4.04256 -0.108326 3.33102 -0.108326 2.89332 0.329373L2.40849 0.814208L0.327734 2.89496C0.0224444 3.20025 -0.0785629 3.65142 0.0628474 4.05993Z" fill="white"/>
</g>
<defs>
<clipPath id="clip0_98_53">
<rect width="20" height="20" fill="white"/>
</clipPath>
</defs>
</svg>
